<?xml version="1.0" encoding="UTF-8" standalone="no"?>
<!DOCTYPE svg PUBLIC "-//W3C//DTD SVG 1.1//EN"
 "http://www.w3.org/Graphics/SVG/1.1/DTD/svg11.dtd">
<!-- Generated by graphviz version 2.40.1 (20161225.0304)
 -->
<!-- Title: UmlClassDiagram Pages: 1 -->
<svg width="950pt" height="787pt"
 viewBox="0.00 0.00 949.74 787.20" xmlns="http://www.w3.org/2000/svg" xmlns:xlink="http://www.w3.org/1999/xlink">
<g id="graph0" class="graph" transform="scale(1 1) rotate(0) translate(4 783.2)">
<title>UmlClassDiagram</title>
<polygon fill="#ffffff" stroke="transparent" points="-4,4 -4,-783.2 945.7369,-783.2 945.7369,4 -4,4"/>
<!-- 0 -->
<g id="node1" class="node">
<title>0</title>
<polygon fill="#f2f2f2" stroke="#000000" points="0,-357.7 0,-600.1 438.5998,-600.1 438.5998,-357.7 0,-357.7"/>
<text text-anchor="middle" x="219.2999" y="-583.5" font-family="Times,serif" font-size="14.00" fill="#000000">&lt;&lt;Interface&gt;&gt;</text>
<text text-anchor="middle" x="219.2999" y="-566.7" font-family="Times,serif" font-size="14.00" fill="#000000">IERC20</text>
<polyline fill="none" stroke="#000000" points="0,-558.5 438.5998,-558.5 "/>
<text text-anchor="middle" x="219.2999" y="-541.9" font-family="Times,serif" font-size="14.00" fill="#000000"> </text>
<polyline fill="none" stroke="#000000" points="0,-533.7 438.5998,-533.7 "/>
<text text-anchor="start" x="8" y="-517.1" font-family="Times,serif" font-size="14.00" fill="#000000">External:</text>
<text text-anchor="start" x="8" y="-500.3" font-family="Times,serif" font-size="14.00" fill="#000000"> &#160;&#160;&#160;&#160;totalSupply(): uint256</text>
<text text-anchor="start" x="8" y="-483.5" font-family="Times,serif" font-size="14.00" fill="#000000"> &#160;&#160;&#160;&#160;balanceOf(account: address): uint256</text>
<text text-anchor="start" x="8" y="-466.7" font-family="Times,serif" font-size="14.00" fill="#000000"> &#160;&#160;&#160;&#160;transfer(recipient: address, amount: uint256): bool</text>
<text text-anchor="start" x="8" y="-449.9" font-family="Times,serif" font-size="14.00" fill="#000000"> &#160;&#160;&#160;&#160;allowance(owner: address, spender: address): uint256</text>
<text text-anchor="start" x="8" y="-433.1" font-family="Times,serif" font-size="14.00" fill="#000000"> &#160;&#160;&#160;&#160;approve(spender: address, amount: uint256): bool</text>
<text text-anchor="start" x="8" y="-416.3" font-family="Times,serif" font-size="14.00" fill="#000000"> &#160;&#160;&#160;&#160;transferFrom(sender: address, recipient: address, amount: uint256): bool</text>
<text text-anchor="start" x="8" y="-399.5" font-family="Times,serif" font-size="14.00" fill="#000000">Public:</text>
<text text-anchor="start" x="8" y="-382.7" font-family="Times,serif" font-size="14.00" fill="#000000"> &#160;&#160;&#160;&lt;&lt;event&gt;&gt; Transfer(from: address, to: address, value: uint256)</text>
<text text-anchor="start" x="8" y="-365.9" font-family="Times,serif" font-size="14.00" fill="#000000"> &#160;&#160;&#160;&lt;&lt;event&gt;&gt; Approval(owner: address, spender: address, value: uint256)</text>
</g>
<!-- 1 -->
<g id="node2" class="node">
<title>1</title>
<polygon fill="#f2f2f2" stroke="#000000" points="590.2276,-637.1 590.2276,-778.7 808.3722,-778.7 808.3722,-637.1 590.2276,-637.1"/>
<text text-anchor="middle" x="699.2999" y="-762.1" font-family="Times,serif" font-size="14.00" fill="#000000">Context</text>
<polyline fill="none" stroke="#000000" points="590.2276,-753.9 808.3722,-753.9 "/>
<text text-anchor="middle" x="699.2999" y="-737.3" font-family="Times,serif" font-size="14.00" fill="#000000"> </text>
<polyline fill="none" stroke="#000000" points="590.2276,-729.1 808.3722,-729.1 "/>
<text text-anchor="start" x="598.2276" y="-712.5" font-family="Times,serif" font-size="14.00" fill="#000000">Internal:</text>
<text text-anchor="start" x="598.2276" y="-695.7" font-family="Times,serif" font-size="14.00" fill="#000000"> &#160;&#160;&#160;_msgSender(): (payable: address)</text>
<text text-anchor="start" x="598.2276" y="-678.9" font-family="Times,serif" font-size="14.00" fill="#000000"> &#160;&#160;&#160;_msgData(): bytes</text>
<text text-anchor="start" x="598.2276" y="-662.1" font-family="Times,serif" font-size="14.00" fill="#000000">Public:</text>
<text text-anchor="start" x="598.2276" y="-645.3" font-family="Times,serif" font-size="14.00" fill="#000000"> &#160;&#160;&#160;constructor()</text>
</g>
<!-- 2 -->
<g id="node3" class="node">
<title>2</title>
<polygon fill="#f2f2f2" stroke="#000000" points="456.8629,-382.9 456.8629,-574.9 941.7369,-574.9 941.7369,-382.9 456.8629,-382.9"/>
<text text-anchor="middle" x="699.2999" y="-558.3" font-family="Times,serif" font-size="14.00" fill="#000000">Ownable</text>
<polyline fill="none" stroke="#000000" points="456.8629,-550.1 941.7369,-550.1 "/>
<text text-anchor="start" x="464.8629" y="-533.5" font-family="Times,serif" font-size="14.00" fill="#000000">Private:</text>
<text text-anchor="start" x="464.8629" y="-516.7" font-family="Times,serif" font-size="14.00" fill="#000000"> &#160;&#160;_owner: address</text>
<polyline fill="none" stroke="#000000" points="456.8629,-508.5 941.7369,-508.5 "/>
<text text-anchor="start" x="464.8629" y="-491.9" font-family="Times,serif" font-size="14.00" fill="#000000">Public:</text>
<text text-anchor="start" x="464.8629" y="-475.1" font-family="Times,serif" font-size="14.00" fill="#000000"> &#160;&#160;&#160;&lt;&lt;event&gt;&gt; OwnershipTransferred(previousOwner: address, newOwner: address)</text>
<text text-anchor="start" x="464.8629" y="-458.3" font-family="Times,serif" font-size="14.00" fill="#000000"> &#160;&#160;&#160;&lt;&lt;modifier&gt;&gt; onlyOwner()</text>
<text text-anchor="start" x="464.8629" y="-441.5" font-family="Times,serif" font-size="14.00" fill="#000000"> &#160;&#160;&#160;constructor()</text>
<text text-anchor="start" x="464.8629" y="-424.7" font-family="Times,serif" font-size="14.00" fill="#000000"> &#160;&#160;&#160;owner(): address</text>
<text text-anchor="start" x="464.8629" y="-407.9" font-family="Times,serif" font-size="14.00" fill="#000000"> &#160;&#160;&#160;renounceOwnership()</text>
<text text-anchor="start" x="464.8629" y="-391.1" font-family="Times,serif" font-size="14.00" fill="#000000"> &#160;&#160;&#160;transferOwnership(newOwner: address)</text>
</g>
<!-- 2&#45;&gt;1 -->
<g id="edge1" class="edge">
<title>2&#45;&gt;1</title>
<path fill="none" stroke="#000000" d="M699.2999,-575.0213C699.2999,-585.5877 699.2999,-596.3686 699.2999,-606.9912"/>
<polygon fill="none" stroke="#000000" points="688.8,-607.0931 699.2999,-637.0931 709.8,-607.0931 688.8,-607.0931"/>
</g>
<!-- 3 -->
<g id="node4" class="node">
<title>3</title>
<polygon fill="#f2f2f2" stroke="#000000" points="507.7886,-229.5 507.7886,-320.7 890.8112,-320.7 890.8112,-229.5 507.7886,-229.5"/>
<text text-anchor="middle" x="699.2999" y="-304.1" font-family="Times,serif" font-size="14.00" fill="#000000">TokenRecover</text>
<polyline fill="none" stroke="#000000" points="507.7886,-295.9 890.8112,-295.9 "/>
<text text-anchor="middle" x="699.2999" y="-279.3" font-family="Times,serif" font-size="14.00" fill="#000000"> </text>
<polyline fill="none" stroke="#000000" points="507.7886,-271.1 890.8112,-271.1 "/>
<text text-anchor="start" x="515.7886" y="-254.5" font-family="Times,serif" font-size="14.00" fill="#000000">Public:</text>
<text text-anchor="start" x="515.7886" y="-237.7" font-family="Times,serif" font-size="14.00" fill="#000000"> &#160;&#160;&#160;recoverERC20(tokenAddress: address, tokenAmount: uint256)</text>
</g>
<!-- 3&#45;&gt;0 -->
<g id="edge3" class="edge">
<title>3&#45;&gt;0</title>
<path fill="none" stroke="#000000" stroke-dasharray="5,2" d="M545.434,-320.7785C512.9704,-331.7045 479.2025,-344.0506 448.2999,-357.2 448.1996,-357.2427 448.0992,-357.2854 447.9989,-357.3282"/>
<polygon fill="#000000" stroke="#000000" points="446.4144,-354.2 438.6253,-361.382 449.1931,-360.6249 446.4144,-354.2"/>
</g>
<!-- 3&#45;&gt;2 -->
<g id="edge2" class="edge">
<title>3&#45;&gt;2</title>
<path fill="none" stroke="#000000" d="M699.2999,-320.8367C699.2999,-330.625 699.2999,-341.4189 699.2999,-352.6308"/>
<polygon fill="none" stroke="#000000" points="688.8,-352.8826 699.2999,-382.8827 709.8,-352.8827 688.8,-352.8826"/>
</g>
<!-- 4 -->
<g id="node5" class="node">
<title>4</title>
<polygon fill="#f2f2f2" stroke="#000000" points="575.5962,-.5 575.5962,-192.5 823.0036,-192.5 823.0036,-.5 575.5962,-.5"/>
<text text-anchor="middle" x="699.2999" y="-175.9" font-family="Times,serif" font-size="14.00" fill="#000000">SampleContract</text>
<polyline fill="none" stroke="#000000" points="575.5962,-167.7 823.0036,-167.7 "/>
<text text-anchor="start" x="583.5962" y="-151.1" font-family="Times,serif" font-size="14.00" fill="#000000">Private:</text>
<text text-anchor="start" x="583.5962" y="-134.3" font-family="Times,serif" font-size="14.00" fill="#000000"> &#160;&#160;_creator: address</text>
<polyline fill="none" stroke="#000000" points="575.5962,-126.1 823.0036,-126.1 "/>
<text text-anchor="start" x="583.5962" y="-109.5" font-family="Times,serif" font-size="14.00" fill="#000000">Public:</text>
<text text-anchor="start" x="583.5962" y="-92.7" font-family="Times,serif" font-size="14.00" fill="#000000"> &#160;&#160;&#160;&lt;&lt;event&gt;&gt; WorkDone(value: uint256)</text>
<text text-anchor="start" x="583.5962" y="-75.9" font-family="Times,serif" font-size="14.00" fill="#000000"> &#160;&#160;&#160;&lt;&lt;modifier&gt;&gt; onlyCreator()</text>
<text text-anchor="start" x="583.5962" y="-59.1" font-family="Times,serif" font-size="14.00" fill="#000000"> &#160;&#160;&#160;constructor()</text>
<text text-anchor="start" x="583.5962" y="-42.3" font-family="Times,serif" font-size="14.00" fill="#000000"> &#160;&#160;&#160;creator(): address</text>
<text text-anchor="start" x="583.5962" y="-25.5" font-family="Times,serif" font-size="14.00" fill="#000000"> &#160;&#160;&#160;creatorDoesWork(value: uint256)</text>
<text text-anchor="start" x="583.5962" y="-8.7" font-family="Times,serif" font-size="14.00" fill="#000000"> &#160;&#160;&#160;ownerDoesWork(value: uint256)</text>
</g>
<!-- 4&#45;&gt;3 -->
<g id="edge4" class="edge">
<title>4&#45;&gt;3</title>
<path fill="none" stroke="#000000" d="M699.2999,-192.5963C699.2999,-194.7817 699.2999,-196.9616 699.2999,-199.1308"/>
<polygon fill="none" stroke="#000000" points="688.8,-199.1477 699.2999,-229.1478 709.8,-199.1478 688.8,-199.1477"/>
</g>
</g>
</svg>
